<svg width="132" height="109" viewBox="0 0 132 109" fill="none" xmlns="http://www.w3.org/2000/svg">
<g clip-path="url(#clip0_114_993)">
<path d="M103.143 98.1574C102.835 98.1574 102.521 98.1468 102.213 98.1309C101.189 98.0672 100.408 97.1859 100.472 96.1613C100.536 95.1366 101.417 94.3562 102.442 94.4199C103.583 94.4942 104.725 94.3881 105.829 94.1173C109.773 93.167 112.869 90.3055 114.116 86.4618C114.435 85.4849 115.481 84.954 116.457 85.2673C117.434 85.5858 117.965 86.6317 117.652 87.6085C116.001 92.6892 111.908 96.4692 106.71 97.7221C105.548 98.0088 104.348 98.1521 103.143 98.1521V98.1574Z" fill="#FF9900"/>
<path d="M117.386 83.8551C116.771 83.8551 116.171 83.5472 115.815 82.9897C115.263 82.1244 115.523 80.9776 116.388 80.4255C120.094 78.079 122.303 74.0601 122.303 69.6749C122.303 67.6575 121.846 65.7303 120.949 63.9518C120.487 63.0334 120.853 61.9185 121.772 61.4566C122.69 60.9947 123.805 61.361 124.267 62.2795C125.43 64.5836 126.019 67.0735 126.019 69.6802C126.019 75.3448 123.163 80.537 118.379 83.5737C118.071 83.7702 117.726 83.8604 117.386 83.8604V83.8551Z" fill="#FF9900"/>
<path d="M118.623 67.5354C117.928 67.5354 117.264 67.1425 116.946 66.4789C116.505 65.5551 116.898 64.4455 117.822 63.9996C123.741 61.1752 127.564 55.1177 127.564 48.5611C127.564 41.4737 123.301 35.225 116.707 32.6396C115.751 32.2626 115.279 31.1849 115.656 30.2293C116.033 29.2737 117.11 28.8012 118.066 29.1781C126.098 32.3263 131.285 39.9341 131.285 48.5558C131.285 56.5352 126.629 63.9093 119.425 67.3442C119.165 67.4663 118.894 67.5247 118.629 67.5247L118.623 67.5354Z" fill="#FF9900"/>
<path d="M79.0716 108.653C75.8703 108.653 72.7805 107.469 70.5614 105.298C70.0995 104.841 69.8287 104.21 69.8287 103.557V19.983C69.8287 17.1002 71.0233 14.3342 73.0991 12.4018C73.5609 11.9717 74.0494 11.5629 74.559 11.1807C75.3819 10.5649 76.5446 10.7294 77.1604 11.5523C77.7762 12.3752 77.6117 13.5379 76.7888 14.1537C76.3853 14.4563 75.9924 14.7855 75.6261 15.1253C74.2989 16.3622 73.5397 18.1354 73.5397 19.9883V103.005C75.5412 104.703 78.4293 105.351 81.2112 104.693C83.9771 104.04 86.2069 102.049 87.1837 99.3679C87.5341 98.4016 88.6012 97.9079 89.5675 98.2583C90.5337 98.6087 91.0274 99.6758 90.677 100.642C89.2755 104.502 86.0582 107.368 82.0712 108.313C81.0731 108.552 80.0644 108.664 79.0663 108.664L79.0716 108.653Z" fill="#FF9900"/>
<path d="M61.244 107.289C60.9255 107.289 60.6122 107.209 60.3256 107.044C57.9578 105.696 2.39417 73.7254 0.111319 41.9353C-1.15752 24.1928 8.39861 7.78809 23.354 2.04379C36.9077 -3.15899 51.1995 1.69871 61.5838 15.0454C62.5606 16.2984 63.0968 17.8645 63.0968 19.4625V105.431C63.0968 106.094 62.7464 106.705 62.1731 107.039C61.8864 107.209 61.5625 107.289 61.2387 107.289H61.244ZM34.0834 3.73735C30.9458 3.73735 27.7922 4.32134 24.6865 5.51055C11.2442 10.6762 2.66493 25.5413 3.82228 41.6699C5.68573 67.6042 48.03 95.2054 59.3859 102.155V19.4625C59.3859 18.6927 59.1257 17.9335 58.6585 17.3283C51.7569 8.46233 43.0077 3.73735 34.0887 3.73735H34.0834Z" fill="#FF9900"/>
<path d="M123.152 36.3399C122.748 36.3399 122.345 36.2125 122.005 35.9417C121.198 35.31 121.055 34.142 121.692 33.335C123.741 30.723 124.824 27.5854 124.824 24.262C124.824 16.1605 118.231 9.5668 110.129 9.5668C109.163 9.5668 108.197 9.66236 107.257 9.84817C106.254 10.0446 105.271 9.39691 105.075 8.38821C104.873 7.37951 105.532 6.40266 106.535 6.20623C107.713 5.97263 108.924 5.85583 110.134 5.85583C120.285 5.85583 128.546 14.1166 128.546 24.2673C128.546 28.4348 127.187 32.3635 124.623 35.6338C124.256 36.101 123.709 36.3452 123.157 36.3452L123.152 36.3399Z" fill="#FF9900"/>
<path d="M95.3755 103.217C92.8484 103.217 90.4222 102.643 88.1606 101.518C87.2421 101.061 86.8705 99.9465 87.3271 99.028C87.7837 98.1096 88.8985 97.7326 89.817 98.1945C91.5583 99.0599 93.4271 99.5005 95.3755 99.5005C96.9628 99.5005 98.5078 99.2085 99.9677 98.6299C100.923 98.2529 102.001 98.7201 102.378 99.6757C102.755 100.631 102.288 101.709 101.332 102.086C99.4368 102.835 97.43 103.217 95.3755 103.217Z" fill="#FF9900"/>
<path d="M80.2608 16.2348C79.2362 16.2348 78.4027 15.4013 78.4027 14.3767C78.4027 7.18837 84.2532 1.33789 91.4415 1.33789C98.1733 1.33789 103.88 6.58845 104.433 13.2884C104.517 14.313 103.758 15.2102 102.734 15.2952C101.714 15.3748 100.812 14.6209 100.727 13.5963C100.329 8.8076 96.2514 5.05416 91.4362 5.05416C86.2971 5.05416 82.1137 9.23763 82.1137 14.3767C82.1137 15.4013 81.2802 16.2348 80.2555 16.2348H80.2608Z" fill="#FF9900"/>
<path d="M95.1154 34.832C94.2129 34.832 93.2944 34.7365 92.3813 34.5294C91.3779 34.3065 90.7461 33.3137 90.9691 32.3103C91.1921 31.3069 92.1848 30.6751 93.1882 30.8981C97.961 31.9652 102.702 28.9444 103.769 24.1716C103.992 23.1683 104.985 22.5418 105.988 22.7595C106.992 22.9824 107.623 23.9752 107.4 24.9786C106.094 30.8291 100.886 34.8267 95.1207 34.8267L95.1154 34.832Z" fill="#FF9900"/>
<path d="M104.411 71.0551C103.716 71.0551 103.047 70.6622 102.734 69.9933C102.293 69.0642 102.691 67.96 103.615 67.5193C108.032 65.4223 109.917 60.1293 107.825 55.7122C107.384 54.7831 107.783 53.6789 108.706 53.2382C109.635 52.7976 110.74 53.1957 111.18 54.1195C114.153 60.3841 111.472 67.9016 105.208 70.8746C104.953 70.9967 104.677 71.0551 104.411 71.0551Z" fill="#FF9900"/>
<path d="M84.285 84.0621C83.4409 84.0621 82.6764 83.4834 82.48 82.6287C80.8979 75.8757 85.1079 69.0908 91.8609 67.5088C92.859 67.2752 93.8624 67.8963 94.096 68.8944C94.3296 69.8925 93.7084 70.8959 92.7104 71.1295C90.401 71.671 88.4473 73.0726 87.1997 75.0847C85.952 77.0967 85.5645 79.4752 86.106 81.7793C86.3396 82.7773 85.7185 83.7807 84.7204 84.0143C84.577 84.0462 84.4337 84.0621 84.2957 84.0621H84.285Z" fill="#FF9900"/>
<path d="M99.1821 56.5139C98.6937 56.5139 98.2105 56.3228 97.8442 55.9458L97.5045 55.5954C90.9266 48.7787 81.1582 46.8569 72.6267 50.6953C71.6923 51.1147 70.5933 50.6953 70.1686 49.7609C69.7492 48.8265 70.1686 47.7276 71.103 47.3028C81.0838 42.8115 92.4981 45.0518 100.18 53.01L100.52 53.3604C101.231 54.0983 101.21 55.2769 100.472 55.9883C100.111 56.3387 99.644 56.5086 99.1821 56.5086V56.5139Z" fill="#FF9900"/>
<path d="M86.8121 95.0516C86.6794 95.0516 86.5467 95.0516 86.4139 95.0463C85.3893 95.0145 84.5823 94.1544 84.6142 93.1298C84.646 92.1051 85.5114 91.3141 86.5307 91.33C91.399 91.4999 95.5135 87.6297 95.6674 82.7454C95.6993 81.7208 96.5594 80.9192 97.584 80.9457C98.6086 80.9776 99.4156 81.8376 99.3837 82.8622C99.1714 89.663 93.5704 95.0516 86.8174 95.0516H86.8121Z" fill="#FF9900"/>
<path d="M80.4892 48.508C79.5601 48.508 78.7531 47.8072 78.647 46.8622C78.1267 42.339 81.3864 38.2351 85.9096 37.7149C86.9289 37.5981 87.8527 38.3307 87.9695 39.35C88.0863 40.3694 87.3537 41.2931 86.3343 41.4099C83.8444 41.6966 82.0553 43.9529 82.3367 46.4375C82.4535 47.4568 81.7209 48.3806 80.7015 48.4974C80.6272 48.508 80.5582 48.508 80.4892 48.508Z" fill="#FF9900"/>
</g>
<defs>
<clipPath id="clip0_114_993">
<rect width="131.28" height="108.653" fill="white"/>
</clipPath>
</defs>
</svg>
